M48
; DRILL file {KiCad 7.0.8} date Fri Jun  7 19:37:30 2024
; FORMAT={-:-/ absolute / inch / decimal}
; #@! TF.CreationDate,2024-06-07T19:37:30+09:00
; #@! TF.GenerationSoftware,Kicad,Pcbnew,7.0.8
; #@! TF.FileFunction,Plated,1,2,PTH
FMAT,2
INCH
; #@! TA.AperFunction,Plated,PTH,ViaDrill
T1C0.0118
; #@! TA.AperFunction,Plated,PTH,ComponentDrill
T2C0.0320
; #@! TA.AperFunction,Plated,PTH,ComponentDrill
T3C0.0394
; #@! TA.AperFunction,Plated,PTH,ComponentDrill
T4C0.0400
%
G90
G05
T1
X4.39Y-3.555
X4.515Y-3.6
X4.515Y-3.65
X4.515Y-3.7
X4.515Y-3.75
X4.515Y-3.8
X4.565Y-3.6
X4.565Y-3.65
X4.565Y-3.7
X4.565Y-3.75
X4.565Y-3.8
X4.615Y-3.6
X4.615Y-3.65
X4.615Y-3.7
X4.615Y-3.75
X4.615Y-3.8
X4.665Y-3.6
X4.665Y-3.65
X4.665Y-3.7
X4.665Y-3.75
X4.665Y-3.8
X4.7037Y-4.9013
X4.715Y-3.6
X4.715Y-3.65
X4.715Y-3.7
X4.715Y-3.75
X4.715Y-3.8
X5.1Y-3.975
X5.595Y-5.005
X6.05Y-3.79
X6.055Y-5.135
X6.305Y-3.86
X6.335Y-4.415
X6.335Y-4.465
X6.335Y-4.515
X6.335Y-4.565
X6.385Y-4.365
X6.385Y-4.415
X6.385Y-4.465
X6.385Y-4.515
X6.385Y-4.565
X6.435Y-4.365
X6.435Y-4.415
X6.435Y-4.465
X6.435Y-4.515
X6.435Y-4.565
X6.485Y-4.365
X6.485Y-4.415
X6.485Y-4.465
X6.485Y-4.515
X6.485Y-4.565
X6.535Y-4.365
X6.535Y-4.415
X6.535Y-4.465
X6.535Y-4.515
X6.535Y-4.565
X6.605Y-5.13
X6.795Y-5.07
X7.295Y-5.21
X7.295Y-5.26
X7.295Y-5.31
X7.295Y-5.36
X7.345Y-5.16
X7.345Y-5.21
X7.345Y-5.26
X7.345Y-5.31
X7.345Y-5.36
X7.395Y-5.16
X7.395Y-5.21
X7.395Y-5.26
X7.395Y-5.31
X7.395Y-5.36
X7.445Y-5.16
X7.445Y-5.21
X7.445Y-5.26
X7.445Y-5.31
X7.445Y-5.36
X7.495Y-5.16
X7.495Y-5.21
X7.495Y-5.26
X7.495Y-5.31
X7.495Y-5.36
T2
X5.65Y-3.05
X5.65Y-3.15
X5.72Y-3.755
X5.85Y-3.05
X5.85Y-3.15
X5.92Y-3.755
X6.15Y-3.75
X6.25Y-3.75
X6.3Y-3.3
X6.3Y-3.4
X6.3Y-3.5
X6.45Y-3.3
X6.45Y-3.5
X6.45Y-3.6
X6.45Y-3.8
X6.6Y-4.6547
X6.6Y-4.7547
X6.6Y-4.8547
X6.7Y-4.5047
X6.8Y-4.5047
X6.8Y-4.6547
X6.8Y-4.8547
X6.8Y-4.9547
X6.8Y-5.1547
X6.9482Y-3.7197
X7.0482Y-3.7197
T3
X4.25Y-3.15
X4.25Y-3.25
X4.25Y-3.35
X4.25Y-3.45
X4.25Y-3.55
X4.25Y-3.65
X4.25Y-3.75
X4.25Y-3.85
X4.25Y-3.95
X4.25Y-4.05
X4.25Y-4.15
X4.25Y-4.25
X4.25Y-4.35
X4.25Y-4.45
X4.25Y-4.55
X4.25Y-4.65
X4.25Y-4.75
X4.6Y-2.9
X4.7Y-2.9
X4.8Y-2.9
X4.95Y-3.15
X4.95Y-3.25
X4.95Y-3.35
X4.95Y-3.45
X4.95Y-3.55
X4.95Y-3.65
X4.95Y-3.75
X4.95Y-3.85
X4.95Y-3.95
X4.95Y-4.05
X4.95Y-4.15
X4.95Y-4.25
X4.95Y-4.35
X4.95Y-4.45
X4.95Y-4.55
X4.95Y-4.65
X4.95Y-4.75
X5.3882Y-4.0843
X5.3882Y-4.1843
X5.3882Y-4.2843
X5.3882Y-4.3843
X5.3882Y-4.4843
X5.3882Y-4.5843
X5.3882Y-4.6843
X6.0575Y-4.0843
X6.0575Y-4.1843
X6.0575Y-4.2843
X6.0575Y-4.3843
X6.0575Y-4.4843
X6.0575Y-4.5843
X6.0575Y-4.6843
X6.6Y-3.05
X6.6Y-3.15
X6.6Y-3.25
X6.6Y-3.35
X6.6Y-3.45
X6.6Y-3.55
X6.6Y-3.65
X6.6Y-3.75
X6.6Y-3.85
X6.6Y-3.95
X6.6Y-4.05
X6.6Y-4.15
X6.8Y-3.1
X6.8Y-3.2
X6.8Y-3.3
X6.8Y-3.4
X6.8Y-3.5
X6.8Y-3.6
X6.8Y-3.7
X6.8Y-3.8
X6.8Y-3.9
X6.8Y-4.0
X6.8Y-4.1
X7.05Y-2.9
X7.05Y-4.0047
X7.05Y-4.1047
X7.05Y-4.2047
X7.05Y-4.3047
X7.05Y-4.4047
X7.05Y-4.5047
X7.05Y-4.6047
X7.05Y-4.7047
X7.05Y-4.8047
X7.05Y-4.9047
X7.05Y-5.0047
X7.05Y-5.1047
X7.15Y-2.9
X7.25Y-2.9
X7.25Y-4.0547
X7.25Y-4.1547
X7.25Y-4.2547
X7.25Y-4.3547
X7.25Y-4.4547
X7.25Y-4.5547
X7.25Y-4.6547
X7.25Y-4.7547
X7.25Y-4.8547
X7.25Y-4.9547
X7.25Y-5.0547
T4
X4.3Y-2.9
X4.372Y-5.2
X4.4Y-2.9
X4.628Y-5.2
X5.022Y-5.211
X5.022Y-5.389
X5.196Y-2.85
X5.196Y-2.95
X5.196Y-3.05
X5.196Y-3.15
X5.278Y-5.211
X5.278Y-5.389
X5.296Y-2.85
X5.296Y-2.95
X5.296Y-3.05
X5.296Y-3.15
X5.396Y-2.85
X5.396Y-2.95
X5.396Y-3.05
X5.396Y-3.15
X5.496Y-2.85
X5.496Y-2.95
X5.496Y-3.05
X5.496Y-3.15
X5.75Y-2.85
X5.8484Y-2.85
X5.9469Y-2.85
X6.0453Y-2.85
X6.1437Y-2.85
X6.2421Y-2.85
X6.47Y-2.815
X6.47Y-2.915
X6.57Y-2.815
X6.57Y-2.915
X6.775Y-2.905
X6.875Y-2.905
X7.55Y-3.4587
X7.55Y-3.5571
X7.55Y-3.6555
X7.55Y-3.7539
X7.55Y-3.8524
X7.55Y-3.9508
X7.55Y-4.3079
X7.55Y-4.4063
X7.55Y-4.5047
X7.55Y-4.6031
X7.55Y-4.7016
X7.55Y-4.8
T0
M30
