%TF.GenerationSoftware,KiCad,Pcbnew,7.0.8*%
%TF.CreationDate,2024-06-07T19:37:30+09:00*%
%TF.ProjectId,untitled,756e7469-746c-4656-942e-6b696361645f,rev?*%
%TF.SameCoordinates,Original*%
%TF.FileFunction,Legend,Bot*%
%TF.FilePolarity,Positive*%
%FSLAX46Y46*%
G04 Gerber Fmt 4.6, Leading zero omitted, Abs format (unit mm)*
G04 Created by KiCad (PCBNEW 7.0.8) date 2024-06-07 19:37:30*
%MOMM*%
%LPD*%
G01*
G04 APERTURE LIST*
G04 Aperture macros list*
%AMFreePoly0*
4,1,25,0.585770,1.352196,0.597893,1.341842,1.341842,0.597893,1.370349,0.541945,1.371600,0.526051,1.371600,-0.526051,1.352196,-0.585770,1.341842,-0.597893,0.597893,-1.341842,0.541945,-1.370349,0.526051,-1.371600,-0.526051,-1.371600,-0.585770,-1.352196,-0.597893,-1.341842,-1.341842,-0.597893,-1.370349,-0.541945,-1.371600,-0.526051,-1.371600,0.526051,-1.352196,0.585770,-1.341842,0.597893,
-0.597893,1.341842,-0.541945,1.370349,-0.526051,1.371600,0.526051,1.371600,0.585770,1.352196,0.585770,1.352196,$1*%
%AMFreePoly1*
4,1,25,0.362725,0.813716,0.374848,0.803362,0.803362,0.374848,0.831869,0.318900,0.833120,0.303006,0.833120,-0.303006,0.813716,-0.362725,0.803362,-0.374848,0.374848,-0.803362,0.318900,-0.831869,0.303006,-0.833120,-0.303006,-0.833120,-0.362725,-0.813716,-0.374848,-0.803362,-0.803362,-0.374848,-0.831869,-0.318900,-0.833120,-0.303006,-0.833120,0.303006,-0.813716,0.362725,-0.803362,0.374848,
-0.374848,0.803362,-0.318900,0.831869,-0.303006,0.833120,0.303006,0.833120,0.362725,0.813716,0.362725,0.813716,$1*%
%AMFreePoly2*
4,1,25,0.438476,0.996596,0.450599,0.986242,0.986242,0.450599,1.014749,0.394651,1.016000,0.378757,1.016000,-0.378757,0.996596,-0.438476,0.986242,-0.450599,0.450599,-0.986242,0.394651,-1.014749,0.378757,-1.016000,-0.378757,-1.016000,-0.438476,-0.996596,-0.450599,-0.986242,-0.986242,-0.450599,-1.014749,-0.394651,-1.016000,-0.378757,-1.016000,0.378757,-0.996596,0.438476,-0.986242,0.450599,
-0.450599,0.986242,-0.394651,1.014749,-0.378757,1.016000,0.378757,1.016000,0.438476,0.996596,0.438476,0.996596,$1*%
G04 Aperture macros list end*
%ADD10O,3.803200X1.503200*%
%ADD11R,3.000000X2.000000*%
%ADD12C,2.000000*%
%ADD13O,3.129280X1.666240*%
%ADD14O,3.860800X2.032000*%
%ADD15FreePoly0,0.000000*%
%ADD16O,2.032000X3.860800*%
%ADD17O,2.003200X3.803200*%
%ADD18FreePoly1,180.000000*%
%ADD19FreePoly1,270.000000*%
%ADD20FreePoly1,0.000000*%
%ADD21FreePoly1,90.000000*%
%ADD22FreePoly2,90.000000*%
%ADD23FreePoly2,0.000000*%
G04 APERTURE END LIST*
%LPC*%
D10*
%TO.C,U$2*%
X172720000Y-88900000D03*
X172720000Y-96520000D03*
X172720000Y-99060000D03*
X172720000Y-91440000D03*
X167640000Y-85090000D03*
X172720000Y-86360000D03*
X167640000Y-87630000D03*
X172720000Y-83820000D03*
X167640000Y-80010000D03*
X172720000Y-81280000D03*
X167640000Y-77470000D03*
X172720000Y-78740000D03*
X172720000Y-101600000D03*
X167640000Y-102870000D03*
X172720000Y-104140000D03*
X167640000Y-105410000D03*
X167640000Y-95250000D03*
X167640000Y-82550000D03*
X167640000Y-100330000D03*
X167640000Y-92710000D03*
X167640000Y-97790000D03*
X167640000Y-90170000D03*
X172720000Y-93980000D03*
%TD*%
%TO.C,U$3*%
X184150000Y-113150000D03*
X184150000Y-120770000D03*
X184150000Y-123310000D03*
X184150000Y-115690000D03*
X179070000Y-109340000D03*
X184150000Y-110610000D03*
X179070000Y-111880000D03*
X184150000Y-108070000D03*
X179070000Y-104260000D03*
X184150000Y-105530000D03*
X179070000Y-101720000D03*
X184150000Y-102990000D03*
X184150000Y-125850000D03*
X179070000Y-127120000D03*
X184150000Y-128390000D03*
X179070000Y-129660000D03*
X179070000Y-119500000D03*
X179070000Y-106800000D03*
X179070000Y-124580000D03*
X179070000Y-116960000D03*
X179070000Y-122040000D03*
X179070000Y-114420000D03*
X184150000Y-118230000D03*
%TD*%
D11*
%TO.C,U2*%
X153860000Y-118980000D03*
X153860000Y-116440000D03*
X153860000Y-113900000D03*
X153860000Y-111360000D03*
X153860000Y-108820000D03*
X153860000Y-106280000D03*
X153860000Y-103740000D03*
X136860000Y-103740000D03*
X136860000Y-106280000D03*
X136860000Y-108820000D03*
X136860000Y-111360000D03*
X136860000Y-113900000D03*
X136860000Y-116440000D03*
X136860000Y-118980000D03*
%TD*%
D12*
%TO.C,U1*%
X107950000Y-80010000D03*
X107950000Y-82550000D03*
X107950000Y-85090000D03*
X107950000Y-87630000D03*
X107950000Y-90170000D03*
X107950000Y-92710000D03*
X107950000Y-95250000D03*
X107950000Y-97790000D03*
X107950000Y-100330000D03*
X107950000Y-102870000D03*
X107950000Y-105410000D03*
X107950000Y-107950000D03*
X107950000Y-110490000D03*
X107950000Y-113030000D03*
X107950000Y-115570000D03*
X107950000Y-118110000D03*
X107950000Y-120650000D03*
X125730000Y-120650000D03*
X125730000Y-118110000D03*
X125730000Y-115570000D03*
X125730000Y-113030000D03*
X125730000Y-110490000D03*
X125730000Y-107950000D03*
X125730000Y-105410000D03*
X125730000Y-102870000D03*
X125730000Y-100330000D03*
X125730000Y-97790000D03*
X125730000Y-95250000D03*
X125730000Y-92710000D03*
X125730000Y-90170000D03*
X125730000Y-87630000D03*
X125730000Y-85090000D03*
X125730000Y-82550000D03*
X125730000Y-80010000D03*
%TD*%
D13*
%TO.C,T2*%
X167640000Y-118230000D03*
X167640000Y-120770000D03*
X167640000Y-123310000D03*
%TD*%
%TO.C,T1*%
X160020000Y-88900000D03*
X160020000Y-86360000D03*
X160020000Y-83820000D03*
%TD*%
D14*
%TO.C,STP1*%
X191770000Y-109420000D03*
X191770000Y-111920000D03*
X191770000Y-114420000D03*
X191770000Y-116920000D03*
X191770000Y-119420000D03*
X191770000Y-121920000D03*
%TD*%
%TO.C,STP0*%
X191770000Y-87850000D03*
X191770000Y-90350000D03*
X191770000Y-92850000D03*
X191770000Y-95350000D03*
X191770000Y-97850000D03*
X191770000Y-100350000D03*
%TD*%
D15*
%TO.C,SP1*%
X111048800Y-132080000D03*
X117551200Y-132080000D03*
%TD*%
D16*
%TO.C,SENSOR0*%
X146050000Y-72390000D03*
X148550000Y-72390000D03*
X151050000Y-72390000D03*
X153550000Y-72390000D03*
X156050000Y-72390000D03*
X158550000Y-72390000D03*
%TD*%
D17*
%TO.C,S4*%
X121920000Y-73660000D03*
X119380000Y-73660000D03*
X116840000Y-73660000D03*
%TD*%
%TO.C,S3*%
X184150000Y-73660000D03*
X181610000Y-73660000D03*
X179070000Y-73660000D03*
%TD*%
D14*
%TO.C,S1*%
X127558800Y-132359400D03*
X134061200Y-132359400D03*
X127558800Y-136880600D03*
X134061200Y-136880600D03*
%TD*%
D18*
%TO.C,R7*%
X150368000Y-95377000D03*
X145288000Y-95377000D03*
%TD*%
D19*
%TO.C,R6*%
X163830000Y-88900000D03*
X163830000Y-83820000D03*
%TD*%
%TO.C,R5*%
X163830000Y-96520000D03*
X163830000Y-91440000D03*
%TD*%
D20*
%TO.C,R4*%
X143510000Y-77470000D03*
X148590000Y-77470000D03*
%TD*%
%TO.C,R3*%
X143510000Y-80010000D03*
X148590000Y-80010000D03*
%TD*%
D21*
%TO.C,R2*%
X172720000Y-130930000D03*
X172720000Y-125850000D03*
%TD*%
%TO.C,R1*%
X172720000Y-123310000D03*
X172720000Y-118230000D03*
%TD*%
D20*
%TO.C,LED1*%
X156210000Y-95250000D03*
X158750000Y-95250000D03*
%TD*%
D16*
%TO.C,JP5*%
X109220000Y-73660000D03*
X111760000Y-73660000D03*
%TD*%
%TO.C,JP4*%
X172085000Y-73787000D03*
X174625000Y-73787000D03*
%TD*%
D22*
%TO.C,JP2*%
X139599000Y-80010000D03*
X137059000Y-80010000D03*
X139599000Y-77470000D03*
X137059000Y-77470000D03*
X139599000Y-74930000D03*
X137059000Y-74930000D03*
X139599000Y-72390000D03*
X137059000Y-72390000D03*
%TD*%
%TO.C,JP1*%
X134519000Y-80010000D03*
X131979000Y-80010000D03*
X134519000Y-77470000D03*
X131979000Y-77470000D03*
X134519000Y-74930000D03*
X131979000Y-74930000D03*
X134519000Y-72390000D03*
X131979000Y-72390000D03*
%TD*%
D23*
%TO.C,GND0*%
X164338000Y-74041000D03*
X164338000Y-71501000D03*
X166878000Y-74041000D03*
X166878000Y-71501000D03*
%TD*%
D18*
%TO.C,C3*%
X179025200Y-94479200D03*
X176485200Y-94479200D03*
%TD*%
D20*
%TO.C,C1*%
X170180000Y-114420000D03*
X172720000Y-114420000D03*
%TD*%
%LPD*%
M02*
